{
	"patcher" : 	{
		"fileversion" : 1,
		"rect" : [ 1149.0, 842.0, 579.0, 643.0 ],
		"bglocked" : 0,
		"defrect" : [ 1149.0, 842.0, 579.0, 643.0 ],
		"openrect" : [ 0.0, 0.0, 0.0, 0.0 ],
		"openinpresentation" : 1,
		"default_fontsize" : 12.0,
		"default_fontface" : 0,
		"default_fontname" : "Arial",
		"gridonopen" : 0,
		"gridsize" : [ 15.0, 15.0 ],
		"gridsnaponopen" : 0,
		"toolbarvisible" : 1,
		"boxanimatetime" : 200,
		"imprint" : 0,
		"metadata" : [  ],
		"boxes" : [ 			{
				"box" : 				{
					"maxclass" : "newobj",
					"text" : "jit.change @thresh 200",
					"outlettype" : [ "jit_matrix", "" ],
					"fontsize" : 12.0,
					"id" : "obj-22",
					"patching_rect" : [ 27.0, 137.0, 150.0, 20.0 ],
					"numinlets" : 1,
					"fontname" : "Arial",
					"numoutlets" : 2
				}

			}
, 			{
				"box" : 				{
					"maxclass" : "number",
					"outlettype" : [ "int", "bang" ],
					"fontsize" : 12.0,
					"id" : "obj-20",
					"patching_rect" : [ 451.0, 100.0, 50.0, 20.0 ],
					"numinlets" : 1,
					"fontname" : "Arial",
					"numoutlets" : 2
				}

			}
, 			{
				"box" : 				{
					"maxclass" : "message",
					"text" : "threshold $1",
					"outlettype" : [ "" ],
					"fontsize" : 12.0,
					"id" : "obj-19",
					"patching_rect" : [ 451.0, 129.0, 80.0, 18.0 ],
					"numinlets" : 2,
					"fontname" : "Arial",
					"numoutlets" : 1
				}

			}
, 			{
				"box" : 				{
					"maxclass" : "jit.pwindow",
					"outlettype" : [ "", "" ],
					"id" : "obj-17",
					"patching_rect" : [ 379.0, 426.0, 80.0, 60.0 ],
					"numinlets" : 1,
					"numoutlets" : 2
				}

			}
, 			{
				"box" : 				{
					"maxclass" : "newobj",
					"text" : "jit.matrix 1 float32 80 60",
					"outlettype" : [ "jit_matrix", "" ],
					"fontsize" : 12.0,
					"id" : "obj-15",
					"patching_rect" : [ 185.0, 280.0, 145.0, 20.0 ],
					"numinlets" : 1,
					"fontname" : "Arial",
					"numoutlets" : 2
				}

			}
, 			{
				"box" : 				{
					"maxclass" : "comment",
					"text" : "face event message",
					"fontsize" : 12.0,
					"id" : "obj-16",
					"patching_rect" : [ 382.0, 300.0, 150.0, 20.0 ],
					"numinlets" : 1,
					"fontname" : "Arial",
					"numoutlets" : 0
				}

			}
, 			{
				"box" : 				{
					"maxclass" : "comment",
					"text" : "mode message from the controller",
					"linecount" : 2,
					"fontsize" : 12.0,
					"id" : "obj-13",
					"patching_rect" : [ 317.0, 10.0, 143.0, 34.0 ],
					"numinlets" : 1,
					"fontname" : "Arial",
					"numoutlets" : 0
				}

			}
, 			{
				"box" : 				{
					"maxclass" : "inlet",
					"outlettype" : [ "" ],
					"id" : "obj-11",
					"patching_rect" : [ 287.0, 9.0, 25.0, 25.0 ],
					"numinlets" : 0,
					"numoutlets" : 1,
					"comment" : ""
				}

			}
, 			{
				"box" : 				{
					"maxclass" : "comment",
					"text" : "clipped skin score",
					"fontsize" : 12.0,
					"id" : "obj-10",
					"patching_rect" : [ 224.0, 336.0, 139.0, 20.0 ],
					"numinlets" : 1,
					"fontname" : "Arial",
					"numoutlets" : 0
				}

			}
, 			{
				"box" : 				{
					"maxclass" : "newobj",
					"text" : "jit.op @op max @val -5.",
					"outlettype" : [ "jit_matrix", "" ],
					"fontsize" : 12.0,
					"id" : "obj-9",
					"patching_rect" : [ 185.0, 304.0, 139.0, 20.0 ],
					"numinlets" : 2,
					"fontname" : "Arial",
					"numoutlets" : 2
				}

			}
, 			{
				"box" : 				{
					"maxclass" : "outlet",
					"id" : "obj-27",
					"patching_rect" : [ 343.0, 295.0, 25.0, 25.0 ],
					"numinlets" : 1,
					"numoutlets" : 0,
					"comment" : ""
				}

			}
, 			{
				"box" : 				{
					"maxclass" : "newobj",
					"text" : "jit.matrix 4 char 320 240",
					"outlettype" : [ "jit_matrix", "" ],
					"fontsize" : 12.0,
					"id" : "obj-26",
					"patching_rect" : [ 277.0, 182.0, 142.0, 20.0 ],
					"numinlets" : 1,
					"fontname" : "Arial",
					"numoutlets" : 2
				}

			}
, 			{
				"box" : 				{
					"maxclass" : "outlet",
					"id" : "obj-25",
					"patching_rect" : [ 185.0, 332.0, 25.0, 25.0 ],
					"numinlets" : 1,
					"numoutlets" : 0,
					"comment" : ""
				}

			}
, 			{
				"box" : 				{
					"maxclass" : "newobj",
					"text" : "sel 1 0",
					"outlettype" : [ "bang", "bang", "" ],
					"fontsize" : 12.0,
					"id" : "obj-21",
					"patching_rect" : [ 117.0, 33.0, 46.0, 20.0 ],
					"numinlets" : 1,
					"fontname" : "Arial",
					"numoutlets" : 3
				}

			}
, 			{
				"box" : 				{
					"maxclass" : "message",
					"text" : "settings",
					"outlettype" : [ "" ],
					"fontsize" : 12.0,
					"id" : "obj-18",
					"patching_rect" : [ 207.0, 76.0, 52.0, 18.0 ],
					"numinlets" : 2,
					"fontname" : "Arial",
					"numoutlets" : 1
				}

			}
, 			{
				"box" : 				{
					"maxclass" : "inlet",
					"outlettype" : [ "" ],
					"id" : "obj-14",
					"patching_rect" : [ 27.0, 5.0, 25.0, 25.0 ],
					"numinlets" : 0,
					"numoutlets" : 1,
					"comment" : ""
				}

			}
, 			{
				"box" : 				{
					"maxclass" : "outlet",
					"id" : "obj-12",
					"patching_rect" : [ 65.0, 301.0, 24.0, 24.0 ],
					"numinlets" : 1,
					"numoutlets" : 0,
					"comment" : "Input with face detections"
				}

			}
, 			{
				"box" : 				{
					"maxclass" : "jit.fpsgui",
					"outlettype" : [ "", "" ],
					"fontsize" : 12.0,
					"id" : "obj-5",
					"patching_rect" : [ 28.0, 589.0, 80.0, 36.0 ],
					"presentation" : 1,
					"numinlets" : 1,
					"fontname" : "Arial",
					"numoutlets" : 2,
					"presentation_rect" : [ 61.0, 410.0, 80.0, 36.0 ]
				}

			}
, 			{
				"box" : 				{
					"maxclass" : "message",
					"text" : "close",
					"outlettype" : [ "" ],
					"fontsize" : 12.0,
					"id" : "obj-8",
					"patching_rect" : [ 160.0, 76.0, 39.0, 18.0 ],
					"numinlets" : 2,
					"fontname" : "Arial",
					"numoutlets" : 1
				}

			}
, 			{
				"box" : 				{
					"maxclass" : "message",
					"text" : "open",
					"outlettype" : [ "" ],
					"fontsize" : 12.0,
					"id" : "obj-7",
					"patching_rect" : [ 117.0, 76.0, 37.0, 18.0 ],
					"numinlets" : 2,
					"fontname" : "Arial",
					"numoutlets" : 1
				}

			}
, 			{
				"box" : 				{
					"maxclass" : "newobj",
					"text" : "mxj MaxNewFaceDetector /Users/cameraman/cameraman/face-detector/NewFaceDetector/xml/Jan22-cascade-2.xml /Users/cameraman/cameraman/xml/skin-Nov18-newHSV-cascade.xml",
					"linecount" : 3,
					"outlettype" : [ "", "", "", "" ],
					"fontsize" : 12.0,
					"id" : "obj-6",
					"patching_rect" : [ 27.0, 217.0, 492.0, 48.0 ],
					"numinlets" : 2,
					"fontname" : "Arial",
					"numoutlets" : 4
				}

			}
, 			{
				"box" : 				{
					"maxclass" : "jit.pwindow",
					"outlettype" : [ "", "" ],
					"id" : "obj-4",
					"patching_rect" : [ 28.0, 367.0, 286.333282, 215.107635 ],
					"presentation" : 1,
					"numinlets" : 1,
					"numoutlets" : 2,
					"presentation_rect" : [ 56.0, 45.0, 452.999908, 339.75 ]
				}

			}
, 			{
				"box" : 				{
					"maxclass" : "newobj",
					"text" : "jit.qt.grab 640 480",
					"outlettype" : [ "jit_matrix", "" ],
					"fontsize" : 12.0,
					"id" : "obj-3",
					"patching_rect" : [ 27.0, 111.0, 107.0, 20.0 ],
					"numinlets" : 1,
					"fontname" : "Arial",
					"numoutlets" : 2
				}

			}
, 			{
				"box" : 				{
					"maxclass" : "toggle",
					"outlettype" : [ "int" ],
					"id" : "obj-2",
					"patching_rect" : [ 27.0, 41.0, 22.0, 22.0 ],
					"numinlets" : 1,
					"numoutlets" : 1
				}

			}
, 			{
				"box" : 				{
					"maxclass" : "newobj",
					"text" : "qmetro 100",
					"outlettype" : [ "bang" ],
					"fontsize" : 12.0,
					"id" : "obj-1",
					"patching_rect" : [ 27.0, 77.0, 71.0, 20.0 ],
					"numinlets" : 2,
					"fontname" : "Arial",
					"numoutlets" : 1
				}

			}
 ],
		"lines" : [ 			{
				"patchline" : 				{
					"source" : [ "obj-22", 0 ],
					"destination" : [ "obj-26", 0 ],
					"hidden" : 0,
					"midpoints" : [ 36.5, 177.0, 286.5, 177.0 ]
				}

			}
, 			{
				"patchline" : 				{
					"source" : [ "obj-22", 0 ],
					"destination" : [ "obj-6", 0 ],
					"hidden" : 0,
					"midpoints" : [  ]
				}

			}
, 			{
				"patchline" : 				{
					"source" : [ "obj-3", 0 ],
					"destination" : [ "obj-22", 0 ],
					"hidden" : 0,
					"midpoints" : [  ]
				}

			}
, 			{
				"patchline" : 				{
					"source" : [ "obj-26", 0 ],
					"destination" : [ "obj-6", 1 ],
					"hidden" : 0,
					"midpoints" : [ 286.5, 213.0, 509.5, 213.0 ]
				}

			}
, 			{
				"patchline" : 				{
					"source" : [ "obj-2", 0 ],
					"destination" : [ "obj-1", 0 ],
					"hidden" : 0,
					"midpoints" : [  ]
				}

			}
, 			{
				"patchline" : 				{
					"source" : [ "obj-1", 0 ],
					"destination" : [ "obj-3", 0 ],
					"hidden" : 0,
					"midpoints" : [  ]
				}

			}
, 			{
				"patchline" : 				{
					"source" : [ "obj-9", 0 ],
					"destination" : [ "obj-17", 0 ],
					"hidden" : 0,
					"midpoints" : [ 194.5, 324.0, 219.0, 324.0, 219.0, 363.0, 324.0, 363.0, 324.0, 411.0, 388.5, 411.0 ]
				}

			}
, 			{
				"patchline" : 				{
					"source" : [ "obj-4", 0 ],
					"destination" : [ "obj-5", 0 ],
					"hidden" : 0,
					"midpoints" : [  ]
				}

			}
, 			{
				"patchline" : 				{
					"source" : [ "obj-14", 0 ],
					"destination" : [ "obj-21", 0 ],
					"hidden" : 0,
					"midpoints" : [ 36.5, 30.0, 126.5, 30.0 ]
				}

			}
, 			{
				"patchline" : 				{
					"source" : [ "obj-21", 1 ],
					"destination" : [ "obj-8", 0 ],
					"hidden" : 0,
					"midpoints" : [ 140.0, 63.0, 169.5, 63.0 ]
				}

			}
, 			{
				"patchline" : 				{
					"source" : [ "obj-21", 0 ],
					"destination" : [ "obj-7", 0 ],
					"hidden" : 0,
					"midpoints" : [ 126.5, 57.0, 126.5, 57.0 ]
				}

			}
, 			{
				"patchline" : 				{
					"source" : [ "obj-14", 0 ],
					"destination" : [ "obj-2", 0 ],
					"hidden" : 0,
					"midpoints" : [  ]
				}

			}
, 			{
				"patchline" : 				{
					"source" : [ "obj-18", 0 ],
					"destination" : [ "obj-3", 0 ],
					"hidden" : 0,
					"midpoints" : [ 216.5, 108.0, 36.5, 108.0 ]
				}

			}
, 			{
				"patchline" : 				{
					"source" : [ "obj-7", 0 ],
					"destination" : [ "obj-3", 0 ],
					"hidden" : 0,
					"midpoints" : [ 126.5, 96.0, 99.0, 96.0, 99.0, 108.0, 36.5, 108.0 ]
				}

			}
, 			{
				"patchline" : 				{
					"source" : [ "obj-8", 0 ],
					"destination" : [ "obj-3", 0 ],
					"hidden" : 0,
					"midpoints" : [ 169.5, 108.0, 36.5, 108.0 ]
				}

			}
, 			{
				"patchline" : 				{
					"source" : [ "obj-15", 0 ],
					"destination" : [ "obj-9", 0 ],
					"hidden" : 0,
					"midpoints" : [  ]
				}

			}
, 			{
				"patchline" : 				{
					"source" : [ "obj-9", 0 ],
					"destination" : [ "obj-25", 0 ],
					"hidden" : 0,
					"midpoints" : [  ]
				}

			}
, 			{
				"patchline" : 				{
					"source" : [ "obj-20", 0 ],
					"destination" : [ "obj-19", 0 ],
					"hidden" : 0,
					"midpoints" : [  ]
				}

			}
, 			{
				"patchline" : 				{
					"source" : [ "obj-6", 1 ],
					"destination" : [ "obj-15", 0 ],
					"hidden" : 0,
					"midpoints" : [  ]
				}

			}
, 			{
				"patchline" : 				{
					"source" : [ "obj-6", 0 ],
					"destination" : [ "obj-4", 0 ],
					"hidden" : 0,
					"midpoints" : [  ]
				}

			}
, 			{
				"patchline" : 				{
					"source" : [ "obj-6", 0 ],
					"destination" : [ "obj-12", 0 ],
					"hidden" : 0,
					"midpoints" : [ 36.5, 294.0, 74.5, 294.0 ]
				}

			}
, 			{
				"patchline" : 				{
					"source" : [ "obj-6", 2 ],
					"destination" : [ "obj-27", 0 ],
					"hidden" : 0,
					"midpoints" : [  ]
				}

			}
, 			{
				"patchline" : 				{
					"source" : [ "obj-11", 0 ],
					"destination" : [ "obj-6", 0 ],
					"hidden" : 0,
					"midpoints" : [ 296.5, 168.0, 144.0, 168.0, 144.0, 210.0, 36.5, 210.0 ]
				}

			}
, 			{
				"patchline" : 				{
					"source" : [ "obj-19", 0 ],
					"destination" : [ "obj-6", 0 ],
					"hidden" : 0,
					"midpoints" : [ 460.5, 168.0, 144.0, 168.0, 144.0, 204.0, 36.5, 204.0 ]
				}

			}
 ]
	}

}
